<svg viewBox="0 0 900 620" xmlns="http://www.w3.org/2000/svg" font-family="'Malgun Gothic', 'Segoe UI', sans-serif">
<title>GUNSMITH ERD - Crow's Foot Diagram</title>

<!-- ── WEAPON ─────────────────────────────────────────────── -->
<rect x="50" y="220" width="190" height="220" rx="6" fill="#e8f0ff" stroke="#4361ee" stroke-width="2"/>
<rect x="50" y="220" width="190" height="32" rx="6" fill="#4361ee"/>
<rect x="50" y="240" width="190" height="12" fill="#4361ee"/>
<text x="145" y="241" text-anchor="middle" fill="white" font-size="13" font-weight="bold">WEAPON</text>
<text x="62" y="268" fill="#4361ee" font-size="10" font-weight="bold">PK</text>
<text x="82" y="268" fill="#1a1a2e" font-size="11">weapon_id</text>
<line x1="50" y1="273" x2="240" y2="273" stroke="#c5d3f5" stroke-width="1"/>
<text x="62" y="289" fill="#555" font-size="10">weapon_name</text>
<text x="62" y="305" fill="#555" font-size="10">gun_type</text>
<text x="62" y="321" fill="#555" font-size="10">bullet_type</text>
<text x="62" y="337" fill="#555" font-size="10">damage</text>
<text x="62" y="353" fill="#555" font-size="10">bullet_speed</text>
<text x="62" y="369" fill="#555" font-size="10">fire_speed</text>
<text x="62" y="385" fill="#555" font-size="10">description</text>
<text x="62" y="401" fill="#555" font-size="10">is_custom</text>
<text x="62" y="417" fill="#555" font-size="10">image_data</text>

<!-- ── WEAPON_RECOIL ──────────────────────────────────────── -->
<rect x="50" y="30" width="190" height="165" rx="6" fill="#e8f0ff" stroke="#4361ee" stroke-width="2"/>
<rect x="50" y="30" width="190" height="32" rx="6" fill="#4361ee"/>
<rect x="50" y="50" width="190" height="12" fill="#4361ee"/>
<text x="145" y="51" text-anchor="middle" fill="white" font-size="11" font-weight="bold">WEAPON_RECOIL</text>
<text x="62" y="78" fill="#4361ee" font-size="10" font-weight="bold">PK</text>
<text x="82" y="78" fill="#1a1a2e" font-size="11">recoil_id</text>
<text x="62" y="93" fill="#4361ee" font-size="10" font-weight="bold">FK</text>
<text x="82" y="93" fill="#1a1a2e" font-size="11">weapon_id</text>
<line x1="50" y1="98" x2="240" y2="98" stroke="#c5d3f5" stroke-width="1"/>
<text x="62" y="112" fill="#555" font-size="10">recoil_vertical</text>
<text x="62" y="126" fill="#555" font-size="10">recoil_horizontal</text>
<text x="62" y="140" fill="#555" font-size="10">muzzle_rise / muzzle_shake</text>
<text x="62" y="154" fill="#555" font-size="10">stability_score</text>
<text x="62" y="168" fill="#555" font-size="10">stability_grade</text>
<text x="62" y="182" fill="#555" font-size="10">... (14 cols)</text>

<!-- ── ATTACHMENT ─────────────────────────────────────────── -->
<rect x="50" y="470" width="190" height="135" rx="6" fill="#e8f0ff" stroke="#4361ee" stroke-width="2"/>
<rect x="50" y="470" width="190" height="32" rx="6" fill="#4361ee"/>
<rect x="50" y="490" width="190" height="12" fill="#4361ee"/>
<text x="145" y="491" text-anchor="middle" fill="white" font-size="13" font-weight="bold">ATTACHMENT</text>
<text x="62" y="518" fill="#4361ee" font-size="10" font-weight="bold">PK</text>
<text x="82" y="518" fill="#1a1a2e" font-size="11">attachment_id</text>
<line x1="50" y1="523" x2="240" y2="523" stroke="#c5d3f5" stroke-width="1"/>
<text x="62" y="537" fill="#555" font-size="10">attachment_name</text>
<text x="62" y="551" fill="#555" font-size="10">slot_type</text>
<text x="62" y="565" fill="#555" font-size="10">image_data</text>
<text x="62" y="579" fill="#555" font-size="10">control_* (6 cols)</text>
<text x="62" y="593" fill="#555" font-size="10">mod_recovery_recoil</text>

<!-- ── WEAPON_ATTACHMENT_COMPAT ───────────────────────────── -->
<rect x="340" y="380" width="210" height="145" rx="6" fill="#e8f0ff" stroke="#4361ee" stroke-width="2"/>
<rect x="340" y="380" width="210" height="32" rx="6" fill="#4361ee"/>
<rect x="340" y="400" width="210" height="12" fill="#4361ee"/>
<text x="445" y="401" text-anchor="middle" fill="white" font-size="10" font-weight="bold">WEAPON_ATTACHMENT_COMPAT</text>
<text x="352" y="428" fill="#4361ee" font-size="10" font-weight="bold">PK</text>
<text x="372" y="428" fill="#1a1a2e" font-size="11">compat_id</text>
<text x="352" y="443" fill="#4361ee" font-size="10" font-weight="bold">FK</text>
<text x="372" y="443" fill="#1a1a2e" font-size="11">weapon_id</text>
<text x="352" y="458" fill="#4361ee" font-size="10" font-weight="bold">FK</text>
<text x="372" y="458" fill="#1a1a2e" font-size="11">attachment_id</text>
<line x1="340" y1="464" x2="550" y2="464" stroke="#c5d3f5" stroke-width="1"/>
<text x="352" y="478" fill="#555" font-size="10">control_recoil_vertical</text>
<text x="352" y="492" fill="#555" font-size="10">control_* (6 cols)</text>
<text x="352" y="506" fill="#555" font-size="10">mod_recovery_recoil</text>

<!-- ── CUSTOM_CONFIG ──────────────────────────────────────── -->
<rect x="340" y="160" width="210" height="185" rx="6" fill="#e8f0ff" stroke="#4361ee" stroke-width="2"/>
<rect x="340" y="160" width="210" height="32" rx="6" fill="#4361ee"/>
<rect x="340" y="180" width="210" height="12" fill="#4361ee"/>
<text x="445" y="181" text-anchor="middle" fill="white" font-size="13" font-weight="bold">CUSTOM_CONFIG</text>
<text x="352" y="208" fill="#4361ee" font-size="10" font-weight="bold">PK</text>
<text x="372" y="208" fill="#1a1a2e" font-size="11">config_id</text>
<text x="352" y="223" fill="#4361ee" font-size="10" font-weight="bold">FK</text>
<text x="372" y="223" fill="#1a1a2e" font-size="11">weapon_id</text>
<line x1="340" y1="229" x2="550" y2="229" stroke="#c5d3f5" stroke-width="1"/>
<text x="352" y="243" fill="#555" font-size="10">custom_name</text>
<text x="352" y="257" fill="#555" font-size="10">muzzle_id (FK)</text>
<text x="352" y="271" fill="#555" font-size="10">stock_id (FK)</text>
<text x="352" y="285" fill="#555" font-size="10">grip_id (FK)</text>
<text x="352" y="299" fill="#555" font-size="10">magazine_id (FK)</text>
<text x="352" y="313" fill="#555" font-size="10">scope_id (FK)</text>
<text x="352" y="327" fill="#555" font-size="10">foregrip_id (FK)</text>
<text x="352" y="337" fill="#4361ee" font-size="9">→ ATTACHMENT 참조 ×6</text>

<!-- ── RECOIL_RESULT ──────────────────────────────────────── -->
<rect x="660" y="160" width="210" height="165" rx="6" fill="#e8f0ff" stroke="#4361ee" stroke-width="2"/>
<rect x="660" y="160" width="210" height="32" rx="6" fill="#4361ee"/>
<rect x="660" y="180" width="210" height="12" fill="#4361ee"/>
<text x="765" y="181" text-anchor="middle" fill="white" font-size="13" font-weight="bold">RECOIL_RESULT</text>
<text x="672" y="208" fill="#4361ee" font-size="10" font-weight="bold">PK</text>
<text x="692" y="208" fill="#1a1a2e" font-size="11">result_id</text>
<text x="672" y="223" fill="#4361ee" font-size="10" font-weight="bold">FK</text>
<text x="692" y="223" fill="#1a1a2e" font-size="11">config_id</text>
<line x1="660" y1="229" x2="870" y2="229" stroke="#c5d3f5" stroke-width="1"/>
<text x="672" y="243" fill="#555" font-size="10">final_recoil_vertical</text>
<text x="672" y="257" fill="#555" font-size="10">final_recoil_horizontal</text>
<text x="672" y="271" fill="#555" font-size="10">final_muzzle_rise</text>
<text x="672" y="285" fill="#555" font-size="10">final_muzzle_shake</text>
<text x="672" y="299" fill="#555" font-size="10">final_first_shot_recoil</text>
<text x="672" y="313" fill="#555" font-size="10">stability_score / grade</text>

<!-- ══ RELATIONSHIP LINES ══════════════════════════════════════ -->

<!-- WEAPON 1:1 WEAPON_RECOIL -->
<line x1="145" y1="220" x2="145" y2="195" stroke="#4361ee" stroke-width="1.5"/>
<line x1="138" y1="210" x2="152" y2="210" stroke="#4361ee" stroke-width="1.5"/>
<line x1="138" y1="198" x2="152" y2="198" stroke="#4361ee" stroke-width="1.5"/>
<line x1="135" y1="195" x2="155" y2="195" stroke="#4361ee" stroke-width="1.5"/>
<text x="158" y="210" fill="#4361ee" font-size="10" font-weight="bold">1</text>
<text x="158" y="197" fill="#4361ee" font-size="10" font-weight="bold">1</text>

<!-- WEAPON 1:N WEAPON_ATTACHMENT_COMPAT -->
<path d="M240,330 Q295,330 295,453 Q295,453 340,453" fill="none" stroke="#4361ee" stroke-width="1.5"/>
<line x1="248" y1="323" x2="248" y2="337" stroke="#4361ee" stroke-width="1.5"/>
<line x1="255" y1="323" x2="255" y2="337" stroke="#4361ee" stroke-width="1.5"/>
<line x1="340" y1="447" x2="328" y2="453" stroke="#4361ee" stroke-width="1.5"/>
<line x1="340" y1="459" x2="328" y2="453" stroke="#4361ee" stroke-width="1.5"/>
<line x1="340" y1="453" x2="328" y2="453" stroke="#4361ee" stroke-width="1.5"/>
<text x="258" y="328" fill="#4361ee" font-size="10" font-weight="bold">1</text>
<text x="320" y="448" fill="#4361ee" font-size="10" font-weight="bold">N</text>

<!-- ATTACHMENT 1:N WEAPON_ATTACHMENT_COMPAT -->
<path d="M240,537 Q290,537 290,490 Q290,490 340,472" fill="none" stroke="#4361ee" stroke-width="1.5"/>
<line x1="248" y1="530" x2="248" y2="544" stroke="#4361ee" stroke-width="1.5"/>
<line x1="255" y1="530" x2="255" y2="544" stroke="#4361ee" stroke-width="1.5"/>
<line x1="340" y1="466" x2="328" y2="472" stroke="#4361ee" stroke-width="1.5"/>
<line x1="340" y1="478" x2="328" y2="472" stroke="#4361ee" stroke-width="1.5"/>
<line x1="340" y1="472" x2="328" y2="472" stroke="#4361ee" stroke-width="1.5"/>
<text x="258" y="537" fill="#4361ee" font-size="10" font-weight="bold">1</text>
<text x="320" y="468" fill="#4361ee" font-size="10" font-weight="bold">N</text>

<!-- WEAPON 1:N CUSTOM_CONFIG -->
<line x1="240" y1="290" x2="340" y2="252" stroke="#4361ee" stroke-width="1.5"/>
<line x1="248" y1="283" x2="248" y2="297" stroke="#4361ee" stroke-width="1.5"/>
<line x1="255" y1="280" x2="255" y2="294" stroke="#4361ee" stroke-width="1.5"/>
<line x1="340" y1="246" x2="328" y2="252" stroke="#4361ee" stroke-width="1.5"/>
<line x1="340" y1="258" x2="328" y2="252" stroke="#4361ee" stroke-width="1.5"/>
<line x1="340" y1="252" x2="328" y2="252" stroke="#4361ee" stroke-width="1.5"/>
<text x="260" y="283" fill="#4361ee" font-size="10" font-weight="bold">1</text>
<text x="316" y="248" fill="#4361ee" font-size="10" font-weight="bold">N</text>

<!-- ATTACHMENT 1:N CUSTOM_CONFIG ×6 (dashed) -->
<path d="M240,510 Q300,510 300,345 Q300,345 340,320" fill="none" stroke="#4361ee" stroke-width="1.5" stroke-dasharray="5,3"/>
<text x="304" y="420" fill="#4361ee" font-size="9">×6 슬롯</text>
<text x="304" y="432" fill="#4361ee" font-size="9">(FK참조)</text>

<!-- CUSTOM_CONFIG 1:1 RECOIL_RESULT -->
<line x1="550" y1="252" x2="660" y2="252" stroke="#4361ee" stroke-width="1.5"/>
<line x1="558" y1="244" x2="558" y2="260" stroke="#4361ee" stroke-width="1.5"/>
<line x1="565" y1="244" x2="565" y2="260" stroke="#4361ee" stroke-width="1.5"/>
<line x1="652" y1="244" x2="652" y2="260" stroke="#4361ee" stroke-width="1.5"/>
<line x1="645" y1="244" x2="645" y2="260" stroke="#4361ee" stroke-width="1.5"/>
<text x="598" y="243" fill="#4361ee" font-size="10" font-weight="bold">1 : 1</text>

<!-- ── LEGEND ──────────────────────────────────────────────── -->
<rect x="640" y="390" width="230" height="110" rx="6" fill="#f0f4ff" stroke="#4361ee" stroke-width="1.2"/>
<text x="755" y="410" text-anchor="middle" fill="#4361ee" font-size="11" font-weight="bold">[ 표기법 범례 ]</text>
<line x1="658" y1="428" x2="700" y2="428" stroke="#4361ee" stroke-width="1.5"/>
<line x1="665" y1="422" x2="665" y2="434" stroke="#4361ee" stroke-width="1.5"/>
<line x1="672" y1="422" x2="672" y2="434" stroke="#4361ee" stroke-width="1.5"/>
<text x="706" y="432" fill="#333" font-size="10">필수 1 (Mandatory One)</text>
<line x1="658" y1="453" x2="700" y2="453" stroke="#4361ee" stroke-width="1.5"/>
<line x1="700" y1="447" x2="688" y2="453" stroke="#4361ee" stroke-width="1.5"/>
<line x1="700" y1="459" x2="688" y2="453" stroke="#4361ee" stroke-width="1.5"/>
<line x1="700" y1="453" x2="688" y2="453" stroke="#4361ee" stroke-width="1.5"/>
<text x="706" y="457" fill="#333" font-size="10">다수 N (Many)</text>
<line x1="658" y1="475" x2="700" y2="475" stroke="#4361ee" stroke-width="1.5" stroke-dasharray="4,3"/>
<text x="706" y="479" fill="#333" font-size="10">복수 참조 (×6 슬롯)</text>

<!-- Title -->
<text x="450" y="18" text-anchor="middle" fill="#1a1a2e" font-size="15" font-weight="bold">GUNSMITH ERD — Crow's Foot Notation</text>
</svg>
